# xmcd
#
# Track frame offsets: 
#        150
#        18885
#        46507
#        65092
#
# Disc length: 1318 seconds
#
# Revision: 2
# Processed by: cddbd v1.5.2PL0 Copyright (c) Steve Scherf et al.
# Submitted via: ExactAudioCopy v1.0b6
#
DISCID=27052404
DTITLE=Rob Base and D.J. E-Z Rock - Joy and Pain
DYEAR=1989
DGENRE=Hip-Hop
TTITLE0=Joy and Pain (Radio Version)
TTITLE1=Joy and Pain (World To World Remix)
TTITLE2=Joy and Pain (No-Rap-Attack-Dub-Track)
TTITLE3=Get On The Dance Floor (Danny D. Remix)
EXTD=
EXTT0=
EXTT1=
EXTT2=
EXTT3=
PLAYORDER=
